<?xml version="1.0" encoding="UTF-8" standalone="no"?>
<svg
   xmlns:dc="http://purl.org/dc/elements/1.1/"
   xmlns:cc="http://creativecommons.org/ns#"
   xmlns:rdf="http://www.w3.org/1999/02/22-rdf-syntax-ns#"
   xmlns:svg="http://www.w3.org/2000/svg"
   xmlns="http://www.w3.org/2000/svg"
   xmlns:sodipodi="http://sodipodi.sourceforge.net/DTD/sodipodi-0.dtd"
   xmlns:inkscape="http://www.inkscape.org/namespaces/inkscape"
   width="65"
   height="61"
   viewBox="0 0 65 61"
   fill="none"
   version="1.1"
   id="svg8"
   sodipodi:docname="Ignite-logo.svg"
   inkscape:version="1.0.2-2 (e86c870879, 2021-01-15)">
  <metadata
     id="metadata14">
    <rdf:RDF>
      <cc:Work
         rdf:about="">
        <dc:format>image/svg+xml</dc:format>
        <dc:type
           rdf:resource="http://purl.org/dc/dcmitype/StillImage" />
      </cc:Work>
    </rdf:RDF>
  </metadata>
  <defs
     id="defs12" />
  <sodipodi:namedview
     pagecolor="#ffffff"
     bordercolor="#666666"
     borderopacity="1"
     objecttolerance="10"
     gridtolerance="10"
     guidetolerance="10"
     inkscape:pageopacity="0"
     inkscape:pageshadow="2"
     inkscape:window-width="1304"
     inkscape:window-height="745"
     id="namedview10"
     showgrid="false"
     inkscape:zoom="2.3688525"
     inkscape:cx="-15.725725"
     inkscape:cy="7.86337"
     inkscape:window-x="54"
     inkscape:window-y="-8"
     inkscape:window-maximized="1"
     inkscape:current-layer="svg8" />
  <path
     opacity="0.5"
     d="M64.067 0.410504L48.388 55.9541C48.3082 56.2062 47.9893 56.2819 47.8033 56.1054L37.3064 46.1464L45.1724 18.3115C45.2522 18.0594 45.013 17.8325 44.7472 17.9081L15.4089 25.3711L4.96507 15.4625C4.77905 15.286 4.85878 14.9834 5.12452 14.9078L63.6418 0.00710022C63.9075 -0.0433252 64.1467 0.183589 64.067 0.410504Z"
     fill="#00B37E"
     id="path2"
     style="fill:#d45500" />
  <path
     opacity="0.5"
     d="M37.3058 46.1459L33.2665 60.5171C33.1868 60.7693 32.8679 60.8449 32.6818 60.6684L0.101381 29.7828C-0.0846408 29.6063 -0.00491742 29.3038 0.260829 29.2282L15.4084 25.3706L37.3058 46.1459Z"
     fill="#00B37E"
     id="path4"
     style="fill:#d45500" />
  <path
     d="M45.1711 18.311L37.305 46.1459L15.4076 25.3706L44.7459 17.9076C45.0117 17.832 45.2508 18.0589 45.1711 18.311Z"
     fill="#00B37E"
     id="path6"
     style="fill:#d45500" />
</svg>
